<svg width="24" height="22" viewBox="0 0 24 22" fill="none" xmlns="http://www.w3.org/2000/svg">
<g id="Icono new">
<path id="Vector" fill-rule="evenodd" clip-rule="evenodd" d="M14.3971 15.5543C14.3814 15.4396 14.2751 15.3535 14.149 15.3535H10.149C10.0229 15.3535 9.91658 15.4396 9.90093 15.5543L9.51043 18.418C9.46353 18.762 9.14448 19.0202 8.76623 19.0202H7.34148C6.82033 19.0202 6.35768 19.3259 6.19288 19.7791C6.00063 20.3076 6.42983 20.8535 7.03768 20.8535H17.2604C17.8682 20.8535 18.2974 20.3076 18.1052 19.7791C17.9404 19.3259 17.4777 19.0202 16.9565 19.0202H15.5318C15.1535 19.0202 14.8345 18.762 14.7876 18.418L14.3971 15.5543Z" fill="#00335E"/>
<path id="Vector_2" fill-rule="evenodd" clip-rule="evenodd" d="M4.21076 16.5385C5.84025 16.6314 8.4371 16.7292 12.1484 16.7292C15.8598 16.7292 18.4566 16.6314 20.0861 16.5385C21.704 16.4463 23.0198 15.3459 23.173 13.834C23.2904 12.6764 23.3984 10.9909 23.3984 8.70833C23.3984 6.42579 23.2904 4.74027 23.173 3.58268C23.0198 2.07077 21.7041 0.970374 20.0861 0.878157C18.4566 0.785281 15.8598 0.6875 12.1484 0.6875C8.4371 0.6875 5.84025 0.785281 4.21076 0.878153C2.5928 0.97037 1.27708 2.07077 1.12382 3.58268C1.00647 4.74027 0.898438 6.42579 0.898438 8.70833C0.898438 10.9909 1.00647 12.6764 1.12382 13.834C1.27708 15.3459 2.59279 16.4463 4.21076 16.5385Z" fill="#4891F7"/>
</g>
</svg>
